<svg width="819" height="1088" viewBox="0 0 819 1088" fill="none" xmlns="http://www.w3.org/2000/svg">
<path d="M798.308 1053H27.03C25.2492 1053 24.3587 1053 23.6078 1052.94C21.7006 1052.8 20.4088 1052.53 18.6004 1051.91C17.8884 1051.67 16.895 1051.24 14.9082 1050.38C0 1043.96 0 1044.15 0 967.544V118.456C0 33 0 33 20.6924 33H798.308C819 33 819 33 819 118.456V967.544C819 1053 819 1053 798.308 1053Z" fill="#3A4444"/>
<path d="M328.8 50.4C328.8 50.7 328.7 50.8 328.6 50.8C328.5 50.8 328.4 50.8 328.5 50.6C328.8 50.2 329.4 50 330.1 50.1C332.5 50.3 335.6 55.4 329.6 57.9C325.3 59.9 320.7 57.7 318.8 53.7C316.7 49.3 318.6 44.8 322.4 41.8C328.3 37 336.3 36.3 343.9 36.7C349.1 37 354.2 37.9 359.4 38.8C369.8 40.7 380.9 43 391.3 41.5C396.7 40.7 402.1 38.8 406.5 35.4C411.1 31.9 414.5 26.9 414.9 21.1C415.4 15.2 412.5 9.6 408.4 5.7C402.2 -0.200005 393.9 -1.20001 388.3 1.7C381.1 5.1 375.5 11.3 377.2 19C378.6 25.5 384.6 30.1 390.9 29.2C392.5 29 394 28.4 395.3 27.7C396.6 26.9 398 25.9 398.9 24.5C400.5 22.2 400.9 19.3 399.6 16.7C396.1 9.9 387.2 12.9 387.7 18.3C387.9 19.8 389.2 20.9 390.8 20.8C392.3 20.6 393.4 19.3 393.3 17.7C393.3 17.8 393 18.2 393 18.1C392.9 18 393.2 17.8 393.6 17.7C395.4 17.1 397.3 19.7 395.6 22.2C394.6 23.7 392.4 25 390.4 25.3C386.1 26 381.9 22.7 381 18.3C379.6 12.4 384.3 7.7 389.9 5C400.2 -4.76837e-06 412.7 10.5 411.9 21C411.6 25.8 408.6 30.1 404.7 33.1C400.7 36.2 395.9 37.9 390.9 38.7C381.1 40.1 369.9 37.9 359.9 36.1C354.7 35.2 349.5 34.2 344.1 33.8C335.7 33.2 327.1 34.1 320.4 39.3C319.3 40.2 318.2 41.2 317.3 42.4C314.1 46.7 313.7 51.4 315.5 55.4C318.2 61.5 325.1 64.4 331.2 61.7C343.9 56.4 334 41.8 325.6 46.1C323.2 47.3 321.8 50.3 322.9 53.2C323.7 54.8 325.6 55.6 327.2 54.8C328.8 54 329.5 52.1 328.8 50.4Z" fill="#D2A96A"/>
<path d="M489.7 50.4C489.7 50.7 489.8 50.8 489.9 50.8C490 50.8 490.1 50.8 490 50.6C489.7 50.2 489.1 50 488.4 50.1C486 50.3 482.9 55.4 488.9 57.9C493.2 59.9 497.8 57.7 499.7 53.7C501.8 49.3 499.9 44.8 496.1 41.8C490.2 37 482.2 36.3 474.6 36.7C469.4 37 464.3 37.9 459.1 38.8C448.7 40.7 437.6 43 427.2 41.5C421.8 40.7 416.4 38.8 412 35.4C407.4 31.9 404 26.9 403.6 21.1C403.1 15.2 406 9.6 410.1 5.7C416.3 -0.200005 424.6 -1.20001 430.2 1.7C437.4 5.1 443 11.3 441.3 19C439.9 25.5 433.9 30.1 427.6 29.2C426 29 424.5 28.4 423.2 27.7C421.9 26.9 420.5 25.9 419.6 24.5C418 22.2 417.6 19.3 418.9 16.7C422.4 9.9 431.3 12.9 430.8 18.3C430.6 19.8 429.3 20.9 427.7 20.8C426.2 20.6 425.1 19.3 425.2 17.7C425.2 17.8 425.5 18.2 425.5 18.1C425.6 18 425.3 17.8 424.9 17.7C423.1 17.1 421.2 19.7 422.9 22.2C423.9 23.7 426.1 25 428.1 25.3C432.4 26 436.6 22.7 437.5 18.3C438.9 12.4 434.2 7.7 428.6 5C418.3 -4.76837e-06 405.8 10.5 406.6 21C406.9 25.8 409.9 30.1 413.8 33.1C417.8 36.2 422.6 37.9 427.6 38.7C437.4 40.1 448.6 37.9 458.6 36.1C463.8 35.2 469 34.2 474.4 33.8C482.8 33.2 491.4 34.1 498.1 39.3C499.2 40.2 500.3 41.2 501.2 42.4C504.4 46.7 504.8 51.4 503 55.4C500.3 61.5 493.4 64.4 487.3 61.7C474.6 56.4 484.5 41.8 492.9 46.1C495.3 47.3 496.7 50.3 495.6 53.2C494.8 54.8 492.9 55.6 491.3 54.8C489.7 54 489 52.1 489.7 50.4Z" fill="#D2A96A"/>
<path d="M349.8 50.2C353.1 51.4 356.1 47.1 354.1 44C352.8 42 349.7 40.9 347.1 42.5C344.7 43.9 342.8 47.7 344.5 50.9C346 53.9 350 56.3 356.3 55.2C359.1 54.7 361.7 53.8 364.2 52.8C366.7 51.8 369.2 50.7 371.6 49.5C376.5 47.3 381.3 44.9 386.3 43.3C390.8 41.9 396.8 40.9 400.3 44.1C404.5 47.7 404.1 53.2 400.6 55.7C395.9 59.4 388.1 52.9 392.7 48.9C394.3 47.6 396.3 49 396.4 50C396.4 50.3 396.4 50.4 396.3 50.4C396.1 50.4 394.3 50 394 51.6C393.5 53.9 396.9 54.4 398.6 52.8C402.5 49.2 395.6 42 390.6 46.5C388 48.8 387.4 52.7 389.5 55.9C392.2 59.8 398.3 61.4 402.4 58.2C407.4 54.5 407.9 46.8 402.2 41.8C397.9 37.8 391 38.8 385.4 40.5C380.1 42.2 375.3 44.6 370.4 47C365.6 49.3 360.8 51.8 355.8 52.8C346.3 54.8 343.4 46.8 348.1 44.3C350.6 42.9 353.1 45.8 351.2 47C350.9 47.2 350.7 47.1 351 47.1C349.2 46.3 347.9 49.3 349.8 50.2Z" fill="#D2A96A"/>
<path d="M468.7 50.2C465.4 51.4 462.4 47.1 464.4 44C465.7 42 468.8 40.9 471.4 42.5C473.8 43.9 475.7 47.7 474 50.9C472.5 53.9 468.5 56.3 462.2 55.2C459.4 54.7 456.8 53.8 454.3 52.8C451.8 51.8 449.3 50.7 446.9 49.5C442 47.3 437.2 44.9 432.2 43.3C427.7 41.9 421.7 40.9 418.2 44.1C414 47.7 414.4 53.2 417.9 55.7C422.6 59.4 430.4 52.9 425.8 48.9C424.2 47.6 422.2 49 422.1 50C422.1 50.3 422.1 50.4 422.2 50.4C422.4 50.4 424.2 50 424.5 51.6C425 53.9 421.6 54.4 419.9 52.8C416 49.2 422.9 42 427.9 46.5C430.5 48.8 431.1 52.7 429 55.9C426.3 59.8 420.2 61.4 416.1 58.2C411.1 54.5 410.6 46.8 416.3 41.8C420.6 37.8 427.5 38.8 433.1 40.5C438.4 42.2 443.2 44.6 448.1 47C452.9 49.3 457.7 51.8 462.7 52.8C472.2 54.8 475.1 46.8 470.4 44.3C467.9 42.9 465.4 45.8 467.3 47C467.6 47.2 467.8 47.1 467.5 47.1C469.3 46.3 470.7 49.3 468.7 50.2Z" fill="#D2A96A"/>
<path d="M348.4 27.2C349.9 24.1 353.7 22.8 356.8 24.4C360.5 26.2 361.3 30.8 363.7 33.7C362.8 32.1 362.3 30.3 362.6 28.2C363 25.2 365.1 22.2 368.2 21.5C370.9 21 373.8 22.4 374.5 25.2C374.9 26.6 374.4 28.7 373.1 29.4C370.5 30.8 370.6 27.4 368.3 26.7C365.9 26 365.1 31.2 366.5 33.4C367.9 35.6 372.6 37.7 377.1 35.3C381.4 33 383.7 27.4 380 22.5C379.4 21.7 380.4 20.6 381.2 21.3C389.5 29.8 378.1 43.5 367.2 37.1C364.5 36.7 362.8 35.1 361.3 32.9C360.1 31.2 359.3 29.2 357.9 27.6C355.3 24.8 352.8 25.5 351.4 26.9C348.9 29.4 350.6 32.2 352.4 31.9C351.3 30.8 353 29.3 354.1 30.3C356.4 32.2 353.7 34.7 351.4 34.4C348 33.9 347.2 29.8 348.4 27.2Z" fill="#D2A96A"/>
<path d="M470.1 27.2C468.6 24.1 464.8 22.8 461.7 24.4C458 26.2 457.2 30.8 454.8 33.7C455.7 32.1 456.2 30.3 455.9 28.2C455.5 25.2 453.4 22.2 450.3 21.5C447.6 21 444.7 22.4 444 25.2C443.6 26.6 444.1 28.7 445.4 29.4C448 30.8 447.9 27.4 450.2 26.7C452.6 26 453.4 31.2 452 33.4C450.6 35.6 445.9 37.7 441.4 35.3C437.1 33 434.8 27.4 438.5 22.5C439.1 21.7 438.1 20.6 437.3 21.3C429 29.8 440.4 43.5 451.3 37.1C454 36.7 455.7 35.1 457.2 32.9C458.4 31.2 459.2 29.2 460.6 27.6C463.2 24.8 465.7 25.5 467.1 26.9C469.6 29.4 467.9 32.2 466.1 31.9C467.2 30.8 465.5 29.3 464.4 30.3C462.1 32.2 464.8 34.7 467.1 34.4C470.5 33.9 471.3 29.8 470.1 27.2Z" fill="#D2A96A"/>
<path d="M359.5 67.8C357.1 66 356.2 62.3 356.8 59.3C358 53.6 363.3 50.4 368.7 49.8C369 49.8 369.2 50.2 368.9 50.3C365.8 51.7 362.4 53.5 360.5 56.5C359.6 58 359.1 59.6 359.1 61.3C359.2 63.2 360.1 65.9 361.8 65.7C363.8 65.4 364.1 61.7 366.4 62.9C367.7 63.6 367.5 65.7 366.4 67.1C364.5 69.6 361.3 69.1 359.5 67.8Z" fill="#D2A96A"/>
<path d="M459 67.8C461.4 66 462.3 62.3 461.7 59.3C460.5 53.6 455.2 50.4 449.8 49.8C449.5 49.8 449.3 50.2 449.6 50.3C452.7 51.7 456.1 53.5 458 56.5C458.9 58 459.4 59.6 459.4 61.3C459.3 63.2 458.4 65.9 456.7 65.7C454.7 65.4 454.4 61.7 452.1 62.9C450.8 63.6 451 65.7 452.1 67.1C454 69.6 457.2 69.1 459 67.8Z" fill="#D2A96A"/>
<path d="M303.8 39.8C305 36.7 308.5 35.6 311.6 36.3C315.4 37.2 318 40 318.7 43.8C318.7 44 318.7 44.1 318.6 44.2C318.5 44.4 318.4 44.5 318.2 44.6C317.9 44.8 317.4 44.8 317.2 44.3C317.1 44.2 317.1 44 317 43.9C316.9 43.7 316.7 43.5 316.5 43.4C316 43 315.5 42.7 314.9 42.5C314.3 42.4 313.7 42.3 313.1 42.5C312.8 42.6 312.6 42.8 312.4 43C312.9 43 313.4 43.3 313.5 43.9C313.5 44.1 313.6 44.2 313.6 44.4C313.7 45.4 313 46 312 45.9C310.8 45.7 310 44.4 310.2 43.2C310.4 42 311.5 41.1 312.6 40.8C313.5 40.6 314.5 40.6 315.3 40.9C314.5 39.8 313.5 39 311.8 38.6C310.6 38.3 309.3 38.2 308.1 38.7C307.5 39 306.8 39.4 306.5 40C306.4 40.2 306.2 40.5 306.1 40.7C305.9 41.2 305.9 41.7 306.2 42.1C306.3 41.9 306.5 41.7 306.7 41.5C309.1 39.8 311 44.2 307.9 45.3C304.6 46.5 302.7 42.5 303.8 39.8Z" fill="#D2A96A"/>
<path d="M514.7 39.8C513.5 36.7 510 35.6 506.9 36.3C503.1 37.2 500.5 40 499.8 43.8C499.8 44 499.8 44.1 499.9 44.2C500 44.4 500.1 44.5 500.3 44.6C500.6 44.8 501.1 44.8 501.3 44.3C501.4 44.2 501.4 44 501.5 43.9C501.6 43.7 501.8 43.5 502 43.4C502.5 43 503 42.7 503.6 42.5C504.2 42.4 504.8 42.3 505.4 42.5C505.7 42.6 505.9 42.8 506.1 43C505.6 43 505.1 43.3 505 43.9C505 44.1 504.9 44.2 504.9 44.4C504.8 45.4 505.5 46 506.5 45.9C507.7 45.7 508.5 44.4 508.3 43.2C508.1 42 507 41.1 505.9 40.8C505 40.6 504 40.6 503.2 40.9C504 39.8 505 39 506.7 38.6C507.9 38.3 509.2 38.2 510.4 38.7C511 39 511.7 39.4 512 40C512.1 40.2 512.3 40.5 512.4 40.7C512.6 41.2 512.6 41.7 512.3 42.1C512.2 41.9 512 41.7 511.8 41.5C509.4 39.8 507.5 44.2 510.6 45.3C513.9 46.5 515.8 42.5 514.7 39.8Z" fill="#D2A96A"/>
<path d="M336 39.5C338.8 36.5 345.2 34 349.1 36.1C349.4 36.3 349.3 36.8 348.9 36.8C345 36.5 340.9 37.1 338.1 40.1C336.4 41.9 335.4 44.4 336.7 46.6C337.4 47.9 338.6 48.8 340.1 48.6C341.6 48.5 343.9 47.2 342.6 45.1C343.3 46.2 341.8 47 340.9 46.3C340.8 46.2 340.7 46.2 340.7 46.1C340.4 45.9 340.3 45.4 340.4 45C341.5 42 345.5 44 345.3 46.7C345 50.6 339.9 52 336.9 50.2C333 48 333.2 42.5 336 39.5Z" fill="#D2A96A"/>
<path d="M482.6 39.5C479.8 36.5 473.4 34 469.5 36.1C469.2 36.3 469.3 36.8 469.7 36.8C473.6 36.5 477.7 37.1 480.5 40.1C482.2 41.9 483.2 44.4 481.9 46.6C481.2 47.9 480 48.8 478.5 48.6C477 48.5 474.7 47.2 476 45.1C475.3 46.2 476.8 47 477.7 46.3C477.8 46.2 477.9 46.2 477.9 46.1C478.2 45.9 478.3 45.4 478.2 45C477.1 42 473.1 44 473.3 46.7C473.6 50.6 478.7 52 481.7 50.2C485.5 48 485.3 42.5 482.6 39.5Z" fill="#D2A96A"/>
<path d="M366.5 33.6H269V36.2H366.5V33.6Z" fill="#D2A96A"/>
<path d="M549.5 33.5H452V36.1H549.5V33.5Z" fill="#D2A96A"/>
<path d="M248.7 34.8C252.6 30 258 27.1 264 28.9C267.4 29.8 270.1 32.1 271.8 34.8C270.1 37.6 267.4 39.8 264 40.7C258 42.6 252.6 39.6 248.7 34.8ZM266.9 34.8C265.8 33.8 264.5 33 263 32.5C259.5 31.4 256.4 32.6 253.7 34.8C256.4 37 259.5 38.1 263 37.1C264.5 36.7 265.8 35.9 266.9 34.8Z" fill="#D2A96A"/>
<path d="M274.7 34.8C276.5 34.7 278.3 34 280 32.7C282.4 30.8 283.8 27.4 282.7 24.4C281.7 21.8 279 20.2 276.3 21C274.9 21.4 273.4 22.9 273.5 24.4C273.7 27.4 276.5 25.5 278.3 27.1C280.2 28.7 276.2 32.2 273.6 32.2C271 32.2 266.7 29.4 266.4 24.3C266.1 19.5 269.6 14.5 275.7 15C276.7 15.1 277.1 13.6 276 13.4C264.4 10.9 258.9 27.9 270 33.6C270.4 34.1 270.9 34.5 271.4 34.8C270.9 35.1 270.5 35.5 270 36C258.8 41.8 264.3 58.8 276 56.2C277.1 56 276.7 54.5 275.7 54.6C269.6 55.2 266.1 50.2 266.4 45.3C266.7 40.2 271.1 37.4 273.6 37.4C276.2 37.4 280.2 40.9 278.3 42.5C276.5 44.1 273.6 42.2 273.5 45.2C273.4 46.7 274.9 48.2 276.3 48.6C279 49.5 281.8 47.8 282.7 45.2C283.8 42.2 282.4 38.8 280 36.9C278.4 35.6 276.5 34.9 274.7 34.8Z" fill="#D2A96A"/>
<path d="M569.8 34.8C565.9 30 560.5 27.1 554.5 28.9C551.1 29.8 548.4 32.1 546.7 34.8C548.4 37.6 551.1 39.8 554.5 40.7C560.5 42.6 565.9 39.6 569.8 34.8ZM551.6 34.8C552.7 33.8 554 33 555.5 32.5C559 31.4 562.1 32.6 564.8 34.8C562.1 37 559 38.1 555.5 37.1C554 36.7 552.7 35.9 551.6 34.8Z" fill="#D2A96A"/>
<path d="M543.8 34.8C542 34.7 540.2 34 538.5 32.7C536.1 30.8 534.7 27.4 535.8 24.4C536.8 21.8 539.5 20.2 542.2 21C543.6 21.4 545.1 22.9 545 24.4C544.8 27.4 542 25.5 540.2 27.1C538.3 28.7 542.3 32.2 544.9 32.2C547.5 32.2 551.8 29.4 552.1 24.3C552.4 19.5 548.9 14.5 542.8 15C541.8 15.1 541.4 13.6 542.5 13.4C554.1 10.9 559.6 27.9 548.5 33.6C548.1 34.1 547.6 34.5 547.1 34.8C547.6 35.1 548 35.5 548.5 36C559.7 41.8 554.2 58.8 542.5 56.2C541.4 56 541.8 54.5 542.8 54.6C548.9 55.2 552.4 50.2 552.1 45.3C551.8 40.2 547.4 37.4 544.9 37.4C542.3 37.4 538.3 40.9 540.2 42.5C542 44.1 544.9 42.2 545 45.2C545.1 46.7 543.6 48.2 542.2 48.6C539.5 49.5 536.7 47.8 535.8 45.2C534.7 42.2 536.1 38.8 538.5 36.9C540.1 35.6 542 34.9 543.8 34.8Z" fill="#D2A96A"/>
<path d="M334.1 1037.45C334.1 1037.15 334 1037.05 333.9 1037.05C333.8 1037.05 333.7 1037.05 333.8 1037.25C334.1 1037.65 334.7 1037.85 335.4 1037.75C337.8 1037.55 340.9 1032.45 334.9 1029.95C330.6 1027.95 326 1030.15 324.1 1034.15C322 1038.55 323.9 1043.05 327.7 1046.05C333.6 1050.85 341.6 1051.55 349.2 1051.15C354.4 1050.85 359.5 1049.95 364.7 1049.05C375.1 1047.15 386.2 1044.85 396.6 1046.35C402 1047.15 407.4 1049.05 411.8 1052.45C416.4 1055.95 419.8 1060.95 420.2 1066.75C420.7 1072.65 417.8 1078.25 413.7 1082.15C407.5 1088.05 399.2 1089.05 393.6 1086.15C386.4 1082.75 380.8 1076.55 382.5 1068.85C383.9 1062.35 389.9 1057.75 396.2 1058.65C397.8 1058.85 399.3 1059.45 400.6 1060.15C401.9 1060.95 403.3 1061.95 404.2 1063.35C405.8 1065.65 406.2 1068.55 404.9 1071.15C401.4 1077.95 392.5 1074.95 393 1069.55C393.2 1068.05 394.5 1066.95 396.1 1067.05C397.6 1067.25 398.7 1068.55 398.6 1070.15C398.6 1070.05 398.3 1069.65 398.3 1069.75C398.2 1069.85 398.5 1070.05 398.9 1070.15C400.7 1070.75 402.6 1068.15 400.9 1065.65C399.9 1064.15 397.7 1062.85 395.7 1062.55C391.4 1061.85 387.2 1065.15 386.3 1069.55C384.9 1075.45 389.6 1080.15 395.2 1082.85C405.5 1087.85 418 1077.35 417.2 1066.85C416.9 1062.05 413.9 1057.75 410 1054.75C406 1051.65 401.2 1049.95 396.2 1049.15C386.4 1047.75 375.2 1049.95 365.2 1051.75C360 1052.65 354.8 1053.65 349.4 1054.05C341 1054.65 332.4 1053.75 325.7 1048.55C324.6 1047.65 323.5 1046.65 322.6 1045.45C319.4 1041.15 319 1036.45 320.8 1032.45C323.5 1026.35 330.4 1023.45 336.5 1026.15C349.2 1031.45 339.3 1046.05 330.9 1041.75C328.5 1040.55 327.1 1037.55 328.2 1034.65C329 1033.05 330.9 1032.25 332.5 1033.05C334.1 1033.85 334.8 1035.85 334.1 1037.45Z" fill="#D2A96A"/>
<path d="M495 1037.45C495 1037.15 495.1 1037.05 495.2 1037.05C495.3 1037.05 495.4 1037.05 495.3 1037.25C495 1037.65 494.4 1037.85 493.7 1037.75C491.3 1037.55 488.2 1032.45 494.2 1029.95C498.5 1027.95 503.1 1030.15 505 1034.15C507.1 1038.55 505.2 1043.05 501.4 1046.05C495.5 1050.85 487.5 1051.55 479.9 1051.15C474.7 1050.85 469.6 1049.95 464.4 1049.05C454 1047.15 442.9 1044.85 432.5 1046.35C427.1 1047.15 421.7 1049.05 417.3 1052.45C412.7 1055.95 409.3 1060.95 408.9 1066.75C408.4 1072.65 411.3 1078.25 415.4 1082.15C421.6 1088.05 429.9 1089.05 435.5 1086.15C442.7 1082.75 448.3 1076.55 446.6 1068.85C445.2 1062.35 439.2 1057.75 432.9 1058.65C431.3 1058.85 429.8 1059.45 428.5 1060.15C427.2 1060.95 425.8 1061.95 424.9 1063.35C423.3 1065.65 422.9 1068.55 424.2 1071.15C427.7 1077.95 436.6 1074.95 436.1 1069.55C435.9 1068.05 434.6 1066.95 433 1067.05C431.5 1067.25 430.4 1068.55 430.5 1070.15C430.5 1070.05 430.8 1069.65 430.8 1069.75C430.9 1069.85 430.6 1070.05 430.2 1070.15C428.4 1070.75 426.5 1068.15 428.2 1065.65C429.2 1064.15 431.4 1062.85 433.4 1062.55C437.7 1061.85 441.9 1065.15 442.8 1069.55C444.2 1075.45 439.5 1080.15 433.9 1082.85C423.6 1087.85 411.1 1077.35 411.9 1066.85C412.2 1062.05 415.2 1057.75 419.1 1054.75C423.1 1051.65 427.9 1049.95 432.9 1049.15C442.7 1047.75 453.9 1049.95 463.9 1051.75C469.1 1052.65 474.3 1053.65 479.7 1054.05C488.1 1054.65 496.7 1053.75 503.4 1048.55C504.5 1047.65 505.6 1046.65 506.5 1045.45C509.7 1041.15 510.1 1036.45 508.3 1032.45C505.6 1026.35 498.7 1023.45 492.6 1026.15C479.9 1031.45 489.8 1046.05 498.2 1041.75C500.6 1040.55 502 1037.55 500.9 1034.65C500.1 1033.05 498.2 1032.25 496.6 1033.05C495 1033.85 494.3 1035.85 495 1037.45Z" fill="#D2A96A"/>
<path d="M355.1 1037.75C358.4 1036.55 361.4 1040.85 359.4 1043.95C358.1 1045.95 355 1047.05 352.4 1045.45C350 1044.05 348.1 1040.25 349.8 1037.05C351.3 1034.05 355.3 1031.65 361.6 1032.75C364.4 1033.25 367 1034.15 369.5 1035.15C372 1036.15 374.5 1037.25 376.9 1038.45C381.8 1040.65 386.6 1043.05 391.6 1044.65C396.1 1046.05 402.1 1047.05 405.6 1043.85C409.8 1040.25 409.4 1034.75 405.9 1032.25C401.2 1028.55 393.4 1035.05 398 1039.05C399.6 1040.35 401.6 1038.95 401.7 1037.95C401.7 1037.65 401.7 1037.55 401.6 1037.55C401.4 1037.55 399.6 1037.95 399.3 1036.35C398.8 1034.05 402.2 1033.55 403.9 1035.15C407.8 1038.75 400.9 1045.95 395.9 1041.45C393.3 1039.15 392.7 1035.25 394.8 1032.05C397.5 1028.15 403.6 1026.55 407.7 1029.75C412.7 1033.45 413.2 1041.15 407.5 1046.15C403.2 1050.15 396.3 1049.15 390.7 1047.45C385.4 1045.75 380.6 1043.35 375.7 1040.95C370.9 1038.65 366.1 1036.15 361.1 1035.15C351.6 1033.15 348.7 1041.15 353.4 1043.65C355.9 1045.05 358.4 1042.15 356.5 1040.95C356.2 1040.75 356 1040.85 356.3 1040.85C354.5 1041.55 353.2 1038.55 355.1 1037.75Z" fill="#D2A96A"/>
<path d="M474 1037.75C470.7 1036.55 467.7 1040.85 469.7 1043.95C471 1045.95 474.1 1047.05 476.7 1045.45C479.1 1044.05 481 1040.25 479.3 1037.05C477.8 1034.05 473.8 1031.65 467.5 1032.75C464.7 1033.25 462.1 1034.15 459.6 1035.15C457.1 1036.15 454.6 1037.25 452.2 1038.45C447.3 1040.65 442.5 1043.05 437.5 1044.65C433 1046.05 427 1047.05 423.5 1043.85C419.3 1040.25 419.7 1034.75 423.2 1032.25C427.9 1028.55 435.7 1035.05 431.1 1039.05C429.5 1040.35 427.5 1038.95 427.4 1037.95C427.4 1037.65 427.4 1037.55 427.5 1037.55C427.7 1037.55 429.5 1037.95 429.8 1036.35C430.3 1034.05 426.9 1033.55 425.2 1035.15C421.3 1038.75 428.2 1045.95 433.2 1041.45C435.8 1039.15 436.4 1035.25 434.3 1032.05C431.6 1028.15 425.5 1026.55 421.4 1029.75C416.4 1033.45 415.9 1041.15 421.6 1046.15C425.9 1050.15 432.8 1049.15 438.4 1047.45C443.7 1045.75 448.5 1043.35 453.4 1040.95C458.2 1038.65 463 1036.15 468 1035.15C477.5 1033.15 480.4 1041.15 475.7 1043.65C473.2 1045.05 470.7 1042.15 472.6 1040.95C472.9 1040.75 473.1 1040.85 472.8 1040.85C474.6 1041.55 476 1038.55 474 1037.75Z" fill="#D2A96A"/>
<path d="M353.7 1060.75C355.2 1063.85 359 1065.15 362.1 1063.55C365.8 1061.75 366.6 1057.15 369 1054.25C368.1 1055.85 367.6 1057.65 367.9 1059.75C368.3 1062.75 370.4 1065.75 373.5 1066.45C376.2 1066.95 379.1 1065.55 379.8 1062.75C380.2 1061.35 379.7 1059.25 378.4 1058.55C375.8 1057.15 375.9 1060.55 373.6 1061.25C371.2 1061.95 370.4 1056.75 371.8 1054.55C373.2 1052.35 377.9 1050.25 382.4 1052.65C386.7 1054.95 389 1060.55 385.3 1065.45C384.7 1066.25 385.7 1067.35 386.5 1066.65C394.8 1058.15 383.4 1044.45 372.5 1050.85C369.8 1051.25 368.1 1052.85 366.6 1055.05C365.4 1056.75 364.6 1058.75 363.2 1060.35C360.6 1063.15 358.1 1062.45 356.7 1061.05C354.2 1058.55 355.9 1055.75 357.7 1056.05C356.6 1057.15 358.3 1058.65 359.4 1057.65C361.7 1055.75 359 1053.25 356.7 1053.55C353.3 1054.05 352.5 1058.05 353.7 1060.75Z" fill="#D2A96A"/>
<path d="M475.4 1060.75C473.9 1063.85 470.1 1065.15 467 1063.55C463.3 1061.75 462.5 1057.15 460.1 1054.25C461 1055.85 461.5 1057.65 461.2 1059.75C460.8 1062.75 458.7 1065.75 455.6 1066.45C452.9 1066.95 450 1065.55 449.3 1062.75C448.9 1061.35 449.4 1059.25 450.7 1058.55C453.3 1057.15 453.2 1060.55 455.5 1061.25C457.9 1061.95 458.7 1056.75 457.3 1054.55C455.9 1052.35 451.2 1050.25 446.7 1052.65C442.4 1054.95 440.1 1060.55 443.8 1065.45C444.4 1066.25 443.4 1067.35 442.6 1066.65C434.3 1058.15 445.7 1044.45 456.6 1050.85C459.3 1051.25 461 1052.85 462.5 1055.05C463.7 1056.75 464.5 1058.75 465.9 1060.35C468.5 1063.15 471 1062.45 472.4 1061.05C474.9 1058.55 473.2 1055.75 471.4 1056.05C472.5 1057.15 470.8 1058.65 469.7 1057.65C467.4 1055.75 470.1 1053.25 472.4 1053.55C475.8 1054.05 476.6 1058.05 475.4 1060.75Z" fill="#D2A96A"/>
<path d="M364.8 1020.15C362.4 1021.95 361.5 1025.65 362.1 1028.65C363.3 1034.35 368.6 1037.55 374 1038.15C374.3 1038.15 374.5 1037.75 374.2 1037.65C371.1 1036.25 367.7 1034.45 365.8 1031.45C364.9 1029.95 364.4 1028.35 364.4 1026.65C364.5 1024.75 365.4 1022.05 367.1 1022.25C369.1 1022.55 369.4 1026.25 371.7 1025.05C373 1024.35 372.8 1022.25 371.7 1020.85C369.8 1018.25 366.6 1018.75 364.8 1020.15Z" fill="#D2A96A"/>
<path d="M464.3 1020.15C466.7 1021.95 467.6 1025.65 467 1028.65C465.8 1034.35 460.5 1037.55 455.1 1038.15C454.8 1038.15 454.6 1037.75 454.9 1037.65C458 1036.25 461.4 1034.45 463.3 1031.45C464.2 1029.95 464.7 1028.35 464.7 1026.65C464.6 1024.75 463.7 1022.05 462 1022.25C460 1022.55 459.7 1026.25 457.4 1025.05C456.1 1024.35 456.3 1022.25 457.4 1020.85C459.3 1018.25 462.5 1018.75 464.3 1020.15Z" fill="#D2A96A"/>
<path d="M309.1 1048.05C310.3 1051.15 313.8 1052.25 316.9 1051.55C320.7 1050.65 323.3 1047.85 324 1044.05C324 1043.85 324 1043.75 323.9 1043.65C323.8 1043.45 323.7 1043.35 323.5 1043.25C323.2 1043.05 322.7 1043.05 322.5 1043.55C322.4 1043.65 322.4 1043.85 322.3 1043.95C322.2 1044.15 322 1044.35 321.8 1044.45C321.3 1044.85 320.8 1045.15 320.2 1045.35C319.6 1045.45 319 1045.55 318.4 1045.35C318.1 1045.25 317.9 1045.05 317.7 1044.85C318.2 1044.85 318.7 1044.55 318.8 1043.95C318.8 1043.75 318.9 1043.65 318.9 1043.45C319 1042.45 318.3 1041.85 317.3 1041.95C316.1 1042.15 315.3 1043.45 315.5 1044.65C315.7 1045.85 316.8 1046.75 317.9 1047.05C318.8 1047.25 319.8 1047.25 320.6 1046.95C319.8 1048.05 318.8 1048.85 317.1 1049.25C315.9 1049.55 314.6 1049.65 313.4 1049.15C312.8 1048.85 312.1 1048.45 311.8 1047.85C311.7 1047.65 311.5 1047.35 311.4 1047.15C311.2 1046.65 311.2 1046.15 311.5 1045.75C311.6 1045.95 311.8 1046.15 312 1046.35C314.4 1048.05 316.3 1043.65 313.2 1042.55C309.9 1041.35 308 1045.35 309.1 1048.05Z" fill="#D2A96A"/>
<path d="M520 1048.05C518.8 1051.15 515.3 1052.25 512.2 1051.55C508.4 1050.65 505.8 1047.85 505.1 1044.05C505.1 1043.85 505.1 1043.75 505.2 1043.65C505.3 1043.45 505.4 1043.35 505.6 1043.25C505.9 1043.05 506.4 1043.05 506.6 1043.55C506.7 1043.65 506.7 1043.85 506.8 1043.95C506.9 1044.15 507.1 1044.35 507.3 1044.45C507.8 1044.85 508.3 1045.15 508.9 1045.35C509.5 1045.45 510.1 1045.55 510.7 1045.35C511 1045.25 511.2 1045.05 511.4 1044.85C510.9 1044.85 510.4 1044.55 510.3 1043.95C510.3 1043.75 510.2 1043.65 510.2 1043.45C510.1 1042.45 510.8 1041.85 511.8 1041.95C513 1042.15 513.8 1043.45 513.6 1044.65C513.4 1045.85 512.3 1046.75 511.2 1047.05C510.3 1047.25 509.3 1047.25 508.5 1046.95C509.3 1048.05 510.3 1048.85 512 1049.25C513.2 1049.55 514.5 1049.65 515.7 1049.15C516.3 1048.85 517 1048.45 517.3 1047.85C517.4 1047.65 517.6 1047.35 517.7 1047.15C517.9 1046.65 517.9 1046.15 517.6 1045.75C517.5 1045.95 517.3 1046.15 517.1 1046.35C514.7 1048.05 512.8 1043.65 515.9 1042.55C519.2 1041.35 521.1 1045.35 520 1048.05Z" fill="#D2A96A"/>
<path d="M341.3 1048.35C344.1 1051.35 350.5 1053.85 354.4 1051.75C354.7 1051.55 354.6 1051.05 354.2 1051.05C350.3 1051.35 346.2 1050.75 343.4 1047.75C341.7 1045.95 340.7 1043.45 342 1041.25C342.7 1039.95 343.9 1039.05 345.4 1039.25C346.9 1039.35 349.2 1040.65 347.9 1042.75C348.6 1041.65 347.1 1040.85 346.2 1041.55C346.1 1041.65 346 1041.65 346 1041.75C345.7 1041.95 345.6 1042.45 345.7 1042.85C346.8 1045.85 350.8 1043.85 350.6 1041.15C350.3 1037.25 345.2 1035.85 342.2 1037.65C338.3 1039.95 338.5 1045.35 341.3 1048.35Z" fill="#D2A96A"/>
<path d="M487.9 1048.35C485.1 1051.35 478.7 1053.85 474.8 1051.75C474.5 1051.55 474.6 1051.05 475 1051.05C478.9 1051.35 483 1050.75 485.8 1047.75C487.5 1045.95 488.5 1043.45 487.2 1041.25C486.5 1039.95 485.3 1039.05 483.8 1039.25C482.3 1039.35 480 1040.65 481.3 1042.75C480.6 1041.65 482.1 1040.85 483 1041.55C483.1 1041.65 483.2 1041.65 483.2 1041.75C483.5 1041.95 483.6 1042.45 483.5 1042.85C482.4 1045.85 478.4 1043.85 478.6 1041.15C478.9 1037.25 484 1035.85 487 1037.65C490.8 1039.95 490.6 1045.35 487.9 1048.35Z" fill="#D2A96A"/>
<path d="M371.8 1051.75H274.3V1054.35H371.8V1051.75Z" fill="#D2A96A"/>
<path d="M554.8 1051.75H457.3V1054.35H554.8V1051.75Z" fill="#D2A96A"/>
<path d="M254 1053.05C257.9 1057.85 263.3 1060.75 269.3 1058.95C272.7 1058.05 275.4 1055.75 277.1 1053.05C275.4 1050.25 272.7 1048.05 269.3 1047.15C263.3 1045.35 257.9 1048.25 254 1053.05ZM272.2 1053.05C271.1 1054.05 269.8 1054.85 268.3 1055.35C264.8 1056.45 261.7 1055.25 259 1053.05C261.7 1050.85 264.8 1049.75 268.3 1050.75C269.8 1051.15 271.1 1051.95 272.2 1053.05Z" fill="#D2A96A"/>
<path d="M280 1053.05C281.8 1053.15 283.6 1053.85 285.3 1055.15C287.7 1057.05 289.1 1060.45 288 1063.45C287 1066.05 284.3 1067.65 281.6 1066.85C280.2 1066.45 278.7 1064.95 278.8 1063.45C279 1060.45 281.8 1062.35 283.6 1060.75C285.5 1059.15 281.5 1055.65 278.9 1055.65C276.3 1055.65 272 1058.45 271.7 1063.55C271.4 1068.35 274.9 1073.35 281 1072.85C282 1072.75 282.4 1074.25 281.3 1074.45C269.7 1076.95 264.2 1059.95 275.3 1054.25C275.7 1053.75 276.2 1053.35 276.7 1053.05C276.2 1052.75 275.8 1052.35 275.3 1051.85C264.1 1046.05 269.6 1029.05 281.3 1031.65C282.4 1031.85 282 1033.35 281 1033.25C274.9 1032.65 271.4 1037.65 271.7 1042.55C272 1047.65 276.4 1050.45 278.9 1050.45C281.5 1050.45 285.5 1046.95 283.6 1045.35C281.8 1043.75 278.9 1045.65 278.8 1042.65C278.7 1041.15 280.2 1039.65 281.6 1039.25C284.3 1038.35 287.1 1040.05 288 1042.65C289.1 1045.65 287.7 1049.05 285.3 1050.95C283.7 1052.25 281.8 1052.95 280 1053.05Z" fill="#D2A96A"/>
<path d="M575.1 1053.05C571.2 1057.85 565.8 1060.75 559.8 1058.95C556.4 1058.05 553.7 1055.75 552 1053.05C553.7 1050.25 556.4 1048.05 559.8 1047.15C565.8 1045.35 571.2 1048.25 575.1 1053.05ZM556.9 1053.05C558 1054.05 559.3 1054.85 560.8 1055.35C564.3 1056.45 567.4 1055.25 570.1 1053.05C567.4 1050.85 564.3 1049.75 560.8 1050.75C559.3 1051.15 558 1051.95 556.9 1053.05Z" fill="#D2A96A"/>
<path d="M549.1 1053.05C547.3 1053.15 545.5 1053.85 543.8 1055.15C541.4 1057.05 540 1060.45 541.1 1063.45C542.1 1066.05 544.8 1067.65 547.5 1066.85C548.9 1066.45 550.4 1064.95 550.3 1063.45C550.1 1060.45 547.3 1062.35 545.5 1060.75C543.6 1059.15 547.6 1055.65 550.2 1055.65C552.8 1055.65 557.1 1058.45 557.4 1063.55C557.7 1068.35 554.2 1073.35 548.1 1072.85C547.1 1072.75 546.7 1074.25 547.8 1074.45C559.4 1076.95 564.9 1059.95 553.8 1054.25C553.4 1053.75 552.9 1053.35 552.4 1053.05C552.9 1052.75 553.3 1052.35 553.8 1051.85C565 1046.05 559.5 1029.05 547.8 1031.65C546.7 1031.85 547.1 1033.35 548.1 1033.25C554.2 1032.65 557.7 1037.65 557.4 1042.55C557.1 1047.65 552.7 1050.45 550.2 1050.45C547.6 1050.45 543.6 1046.95 545.5 1045.35C547.3 1043.75 550.2 1045.65 550.3 1042.65C550.4 1041.15 548.9 1039.65 547.5 1039.25C544.8 1038.35 542 1040.05 541.1 1042.65C540 1045.65 541.4 1049.05 543.8 1050.95C545.4 1052.25 547.3 1052.95 549.1 1053.05Z" fill="#D2A96A"/>
</svg>
