<svg width="512" height="512" viewBox="0 0 512 512" fill="none" xmlns="http://www.w3.org/2000/svg">
<path d="M256 512C397.385 512 512 397.385 512 256C512 114.615 397.385 0 256 0C114.615 0 0 114.615 0 256C0 397.385 114.615 512 256 512Z" fill="#3A4444"/>
<path d="M512 256C512 233.973 509.216 212.596 503.984 192.2L437.054 125.27L97.608 419.392L178.146 499.93C202.698 507.76 228.852 512 256 512C397.385 512 512 397.385 512 256Z" fill="#3A4444"/>
<path d="M143.239 280.208L119.825 351.627L110.039 406.961L165.373 397.176L236.792 373.761L204.5 312.5L143.239 280.208Z" fill="white"/>
<path d="M236.788 373.762L165.377 397.175L110.039 406.961L204.501 312.499L236.788 373.762Z" fill="#EDEDED"/>
<path d="M282.734 140.672L376.273 234.211L236.795 373.689L143.256 280.15L282.734 140.672Z" fill="#FFE670"/>
<path d="M189.966 326.981L329.443 187.504L376.211 234.272L236.735 373.749L189.966 326.981Z" fill="#FFD400"/>
<path d="M165.373 397.176L119.825 351.627L97.608 419.392L165.373 397.176Z" fill="#4A5BE5"/>
<path d="M165.377 397.175L97.608 419.392L142.601 374.399L165.377 397.175Z" fill="#283EE1"/>
<path d="M398.434 212.119L304.881 118.566L340.095 83.352C355.294 68.153 379.937 68.153 395.136 83.352L433.648 121.864C448.847 137.063 448.847 161.706 433.648 176.905L398.434 212.119Z" fill="#00F8FE"/>
<path d="M433.647 176.904L398.433 212.118L351.658 165.343L414.392 102.609L433.646 121.864C448.849 137.065 448.849 161.701 433.647 176.904V176.904Z" fill="#00D9E0"/>
<path d="M309.701 113.686L403.24 207.225L371.877 238.588L278.338 145.049L309.701 113.686Z" fill="white"/>
<path d="M325.073 191.892L356.435 160.53L403.203 207.298L371.841 238.66L325.073 191.892Z" fill="#EDEDED"/>
</svg>
